# xmcd CD database file
#
# Track frame offsets:
#	150
#	13595
#	28711
#	48330
#	65578
#	80468
#	95946
#	113736
#	133683
#	155891
#	176053
#	195740
#	215000
#
# Disc length: 3155 seconds
#
# Revision: 1
# Processed by: cddbd v1.5.2PL0 Copyright (c) Steve Scherf et al.
# Submitted via: CDex 1.51
#
DISCID=be0c510d
DTITLE=Fenton Robinson - Somebody Loan Me A Dime
DYEAR=1900
DGENRE=Blues
TTITLE0=Somebody Loan Me A Dime
TTITLE1=The Gataway
TTITLE2=Directly From My Heart To You
TTITLE3=Going To Chicago
TTITLE4=You Say You're Leaving
TTITLE5=Checking On My Woman
TTITLE6=You Don't Know What Love Is
TTITLE7=I've Changed
TTITLE8=Country Girl
TTITLE9=Gotta Wake Up
TTITLE10=Texas Flood
TTITLE11=I Hear Some Blues Downstairs
TTITLE12=As The Years Go Passing By
EXTD=
EXTT0=
EXTT1=
EXTT2=
EXTT3=
EXTT4=
EXTT5=
EXTT6=
EXTT7=
EXTT8=
EXTT9=
EXTT10=
EXTT11=
EXTT12=
PLAYORDER=
